<svg width="1221" height="204" viewBox="0 0 1221 204" fill="none" xmlns="http://www.w3.org/2000/svg">
<mask maskUnits="userSpaceOnUse" x="0" y="0" width="0" height="0" fill="black">
<rect fill="white" width="0" height="0"/>
</mask>
<path d="M988 5.5L990.387 0.5L984.613 0.5L987 5.5L988 5.5ZM987 198.5L984.613 203.5L990.387 203.5L988 198.5L987 198.5ZM987 5L987 199L988 199L988 5L987 5Z" fill="#D0D0D0" mask="url(#)"/>
<mask maskUnits="userSpaceOnUse" x="0" y="0" width="0" height="0" fill="black">
<rect fill="white" width="0" height="0"/>
</mask>
<path d="M737 5.5L739.387 0.5L733.613 0.5L736 5.5L737 5.5ZM736 198.5L733.613 203.5L739.387 203.5L737 198.5L736 198.5ZM736 5L736 199L737 199L737 5L736 5Z" fill="#D0D0D0" mask="url(#)"/>
<mask maskUnits="userSpaceOnUse" x="0" y="0" width="0" height="0" fill="black">
<rect fill="white" width="0" height="0"/>
</mask>
<path d="M485 5.5L487.387 0.5L481.613 0.5L484 5.5L485 5.5ZM484 198.5L481.613 203.5L487.387 203.5L485 198.5L484 198.5ZM484 5L484 199L485 199L485 5L484 5Z" fill="#D0D0D0" mask="url(#)"/>
<mask maskUnits="userSpaceOnUse" x="0" y="0" width="0" height="0" fill="black">
<rect fill="white" width="0" height="0"/>
</mask>
<path d="M235 5.5L237.387 0.5L231.613 0.5L234 5.5L235 5.5ZM234 198.5L231.613 203.5L237.387 203.5L235 198.5L234 198.5ZM234 5L234 199L235 199L235 5L234 5Z" fill="#D0D0D0" mask="url(#)"/>
<mask maskUnits="userSpaceOnUse" x="0" y="0" width="0" height="0" fill="black">
<rect fill="white" width="0" height="0"/>
</mask>
<path d="M1212.5 103L1217.5 105.387V99.6132L1212.5 102V103ZM10.5 102L5.5 99.6132V105.387L10.5 103V102ZM1213 102L10 102V103L1213 103V102Z" fill="#D0D0D0" mask="url(#)"/>
</svg>
